<svg width="128" height="42" fill="none" xmlns="http://www.w3.org/2000/svg"><path fill="#9A0606" d="M9.051 0h118.522v33.617H9.051z"/><path fill="#784283" d="M0 5.603h118.522v35.772H0z"/><path d="M8.824 19.21h4.68v.286h-1.378v8.528h.468c.736 0 1.321-.226 1.755-.676.442-.45.888-1.144 1.339-2.08h.273l-.247 3.042h-6.89v-.286h.767v-8.528h-.767v-.286zm9.512 2.015c-.46 0-.789-.117-.988-.351-.19-.234-.286-.524-.286-.871s.104-.633.312-.858c.217-.226.542-.338.975-.338.433 0 .763.104.988.312.225.2.338.49.338.87 0 .373-.108.672-.325.898-.217.225-.555.338-1.014.338zm-1.963.897h3.185v5.954h.728v.234h-3.861v-.234h.715v-5.72h-.767v-.234zm8.52.364c-.32 0-.602.208-.845.624-.243.416-.364.91-.364 1.482v3.484h.923v.234H20.55v-.234h.715v-5.72h-.715v-.234h3.133v1.248c.113-.442.33-.78.65-1.014a1.76 1.76 0 011.092-.364c.407 0 .737.117.988.35.26.226.39.551.39.976 0 .416-.095.736-.286.962-.19.225-.485.338-.884.338-.39 0-.68-.13-.871-.39-.182-.26-.204-.62-.065-1.08h.468c.217-.441.126-.662-.273-.662zm5.45 5.954c-1.118 0-1.959-.286-2.522-.858-.555-.58-.832-1.383-.832-2.405 0-1.032.312-1.82.936-2.366.633-.546 1.434-.82 2.405-.82 1.967 0 2.912.989 2.834 2.965h-3.666v.507c0 .85.108 1.49.325 1.924.217.433.594.65 1.13.65 1.006 0 1.665-.537 1.977-1.612l.234.039c-.165.624-.464 1.11-.897 1.456-.425.346-1.066.52-1.924.52zm-.832-3.744h1.339v-.637c0-.702-.043-1.179-.13-1.43-.078-.26-.243-.39-.494-.39-.243 0-.425.139-.546.416-.113.268-.17.736-.17 1.404v.637zm6.4-6.136h3.185v9.516h.728v.234h-3.861v-.234h.715v-9.282h-.767v-.234zm5.114 3.874l-.117-.182c.806-.529 1.21-1.057 1.21-1.586 0-.277-.118-.433-.352-.468l-.546.507a1.217 1.217 0 01-.48-.325.935.935 0 01-.209-.624c0-.252.1-.464.3-.637.199-.182.459-.273.78-.273.329 0 .597.113.805.338.217.216.325.52.325.91 0 .85-.572 1.63-1.716 2.34zm4.9 2.82h.378v-1c0-.824-.048-1.374-.143-1.651-.087-.286-.26-.43-.52-.43a.757.757 0 00-.43.13.378.378 0 00-.181.339c0 .139.026.282.078.429h.325c.07.182.104.403.104.663 0 .251-.109.472-.325.663-.217.182-.49.273-.82.273-.745 0-1.117-.36-1.117-1.08 0-1.065.905-1.598 2.717-1.598 1.031 0 1.742.177 2.132.533.398.347.598.988.598 1.924v2.639c0 .45.125.676.377.676.294 0 .468-.447.52-1.34l.195.014c-.035.763-.178 1.287-.43 1.573-.25.286-.662.429-1.234.429-1.04 0-1.638-.32-1.794-.962-.113.33-.282.572-.507.728-.226.156-.555.234-.988.234-1.283 0-1.924-.524-1.924-1.573 0-.616.242-1.036.728-1.261.494-.234 1.248-.351 2.262-.351zm-.52 1.6c0 .45.022.74.066.87.052.13.143.196.273.196.138 0 .264-.109.377-.325.121-.226.182-.533.182-.923v-1.21h-.091c-.538 0-.806.395-.806 1.184v.208zm8.877-4.368c-.32 0-.602.208-.844.624-.243.416-.364.91-.364 1.482v3.484h.922v.234H49.94v-.234h.716v-5.72h-.715v-.234h3.133v1.248c.112-.442.329-.78.65-1.014.32-.243.684-.364 1.092-.364.407 0 .736.117.987.35.26.226.39.551.39.976 0 .416-.095.736-.285.962-.191.225-.486.338-.885.338-.39 0-.68-.13-.87-.39-.182-.26-.204-.62-.066-1.08h.468c.217-.441.126-.662-.273-.662zm2.745 3.965v-4.095h-.715v-.234h.715v-1.677l2.418-.598v2.275h1.69v.234h-1.69v4.38c0 .408.04.707.117.898.087.19.26.286.52.286s.485-.13.676-.39c.2-.26.33-.616.39-1.066l.221.026c-.07.598-.26 1.075-.572 1.43-.312.346-.828.52-1.547.52-.72 0-1.27-.143-1.65-.43-.382-.285-.573-.805-.573-1.56zm6.377-5.226c-.46 0-.788-.117-.988-.351-.19-.234-.286-.524-.286-.871s.104-.633.312-.858c.217-.226.542-.338.975-.338.434 0 .763.104.988.312.226.2.338.49.338.87 0 .373-.108.672-.325.898-.216.225-.554.338-1.014.338zm-1.963.897h3.185v5.954h.728v.234h-3.86v-.234h.714v-5.72h-.767v-.234zm7.818.104c-.381 0-.654.208-.819.624-.164.416-.247 1.105-.247 2.067v.676c0 .858.096 1.473.286 1.846.19.372.542.559 1.053.559.512 0 .919-.174 1.222-.52a2.5 2.5 0 00.585-1.183l.234.026c-.164.745-.468 1.282-.91 1.612-.45.338-1.07.507-1.859.507-1.005 0-1.776-.269-2.314-.806-.537-.546-.806-1.34-.806-2.38 0-1.048.304-1.854.91-2.417.616-.564 1.47-.845 2.561-.845.772 0 1.36.151 1.768.455.408.294.611.667.611 1.118 0 .45-.1.78-.299.988-.19.208-.46.312-.806.312-.338 0-.61-.091-.819-.273-.208-.182-.312-.45-.312-.806 0-.156.022-.312.065-.468h.43c.06-.174.09-.33.09-.468 0-.416-.208-.624-.624-.624zm2.466-3.666h3.184v9.516h.728v.234h-3.86v-.234h.715v-9.282h-.767v-.234zm7.584 9.88c-1.118 0-1.959-.286-2.522-.858-.555-.58-.832-1.383-.832-2.405 0-1.032.312-1.82.936-2.366.632-.546 1.434-.82 2.405-.82 1.967 0 2.912.989 2.834 2.965h-3.666v.507c0 .85.108 1.49.325 1.924.216.433.593.65 1.13.65 1.006 0 1.665-.537 1.977-1.612l.234.039c-.165.624-.464 1.11-.897 1.456-.425.346-1.066.52-1.924.52zm-.832-3.744h1.339v-.637c0-.702-.044-1.179-.13-1.43-.078-.26-.243-.39-.494-.39-.243 0-.425.139-.546.416-.113.268-.17.736-.17 1.404v.637z" fill="#fff"/><path fill-rule="evenodd" clip-rule="evenodd" d="M100.884 26.59a.747.747 0 00-.019 1.079.75.75 0 001.079-.02l3.251-3.25.53-.53-.53-.53-3.25-3.25a.75.75 0 00-1.061 1.06l1.97 1.97H92.475a.75.75 0 100 1.5h10.379l-1.97 1.97z" fill="#fff"/></svg>