<svg width="128" height="42" fill="none" xmlns="http://www.w3.org/2000/svg"><path fill="#9A0606" d="M9.051 0h118.522v33.617H9.051z"/><path fill="#784283" d="M0 5.603h118.522v35.772H0z"/><path d="M15.15 23.708h-.688v4.355h.845v.247h-4.225v-.247h.845v-8.606h-.845v-.247h3.926c1.126 0 1.924.06 2.392.182.476.113.81.251 1 .416.417.338.625.875.625 1.612 0 .736-.182 1.265-.546 1.586-.364.312-.919.498-1.664.559v.039c.702.095 1.191.303 1.469.624.277.32.416.858.416 1.612v.689c0 .45.021.754.065.91.052.156.156.234.312.234s.277-.07.364-.208c.095-.148.182-.45.26-.91l.22.026c-.095.736-.264 1.23-.506 1.482-.234.251-.707.377-1.417.377-.71 0-1.218-.165-1.521-.494-.295-.338-.442-.966-.442-1.885v-.95c0-.485-.065-.84-.195-1.065-.122-.226-.351-.338-.69-.338zm-.688-4.251v4.004h.416c.494 0 .858-.152 1.092-.455.242-.303.364-.797.364-1.482v-.377c0-.685-.117-1.135-.351-1.352-.226-.226-.59-.338-1.092-.338h-.43zm9.152 8.983c-1.118 0-1.958-.286-2.522-.858-.554-.58-.832-1.383-.832-2.405 0-1.032.312-1.82.936-2.366.633-.546 1.435-.82 2.405-.82 1.968 0 2.912.989 2.834 2.965H22.77v.507c0 .85.109 1.49.325 1.924.217.433.594.65 1.131.65 1.006 0 1.664-.537 1.976-1.612l.234.039c-.164.624-.463 1.11-.897 1.456-.424.346-1.066.52-1.924.52zm-.832-3.744h1.34v-.637c0-.702-.044-1.179-.13-1.43-.079-.26-.243-.39-.495-.39-.242 0-.424.139-.546.416-.112.268-.169.736-.169 1.404v.637zm7.237.559h.377v-1.001c0-.824-.048-1.374-.143-1.651-.087-.286-.26-.43-.52-.43a.757.757 0 00-.43.13.378.378 0 00-.181.339c0 .139.026.282.078.429h.325c.069.182.104.403.104.663 0 .251-.109.472-.325.663-.217.182-.49.273-.82.273-.745 0-1.117-.36-1.117-1.08 0-1.065.905-1.598 2.717-1.598 1.03 0 1.742.177 2.132.533.398.347.598.988.598 1.924v2.639c0 .45.125.676.377.676.294 0 .468-.447.52-1.34l.195.014c-.035.763-.178 1.287-.43 1.573-.25.286-.662.429-1.234.429-1.04 0-1.638-.32-1.794-.962-.113.33-.282.572-.507.728-.226.156-.555.234-.988.234-1.283 0-1.924-.524-1.924-1.573 0-.616.242-1.036.728-1.261.494-.234 1.248-.351 2.262-.351zm-.52 1.599c0 .45.021.74.065.87.052.13.143.196.273.196.138 0 .264-.109.377-.325.12-.226.182-.533.182-.923v-1.21h-.091c-.538 0-.806.395-.806 1.184v.208zm7.173-1.235c0 .91.048 1.517.143 1.82.096.294.269.442.52.442.26 0 .481-.113.663-.338.191-.226.286-.56.286-1.001v-2.834c0-.373-.073-.69-.22-.95-.148-.26-.365-.39-.65-.39-.287 0-.482.192-.586.573-.104.381-.156 1.049-.156 2.002v.676zm1.781 2.69l-.143-.91c-.294.694-.892 1.04-1.794 1.04-.745 0-1.326-.268-1.742-.805-.407-.538-.61-1.34-.61-2.405 0-2.158.857-3.237 2.573-3.237.763 0 1.266.212 1.508.637v-3.835h-.793v-.234h3.25v9.516h.637v.234h-2.886zm11.015-3.054h.377v-1.001c0-.824-.048-1.374-.143-1.651-.087-.286-.26-.43-.52-.43a.757.757 0 00-.43.13.378.378 0 00-.181.339c0 .139.026.282.078.429h.325c.07.182.104.403.104.663 0 .251-.109.472-.325.663-.217.182-.49.273-.82.273-.745 0-1.117-.36-1.117-1.08 0-1.065.905-1.598 2.717-1.598 1.031 0 1.742.177 2.132.533.398.347.598.988.598 1.924v2.639c0 .45.125.676.377.676.294 0 .468-.447.52-1.34l.195.014c-.035.763-.178 1.287-.43 1.573-.25.286-.662.429-1.234.429-1.04 0-1.638-.32-1.794-.962-.113.33-.282.572-.507.728-.226.156-.555.234-.988.234-1.283 0-1.924-.524-1.924-1.573 0-.616.242-1.036.728-1.261.494-.234 1.248-.351 2.262-.351zm-.52 1.599c0 .45.021.74.065.87.052.13.143.196.273.196.138 0 .264-.109.377-.325.121-.226.182-.533.182-.923v-1.21h-.091c-.538 0-.806.395-.806 1.184v.208zm8.877-4.368c-.321 0-.603.208-.846.624-.242.416-.364.91-.364 1.482v3.484h.923v.234h-4.055v-.234h.715v-5.72h-.715v-.234h3.133v1.248c.112-.442.329-.78.65-1.014.32-.243.684-.364 1.092-.364.407 0 .736.117.988.35.26.226.39.551.39.976 0 .416-.096.736-.286.962-.191.225-.486.338-.885.338-.39 0-.68-.13-.87-.39-.182-.26-.204-.62-.066-1.08h.468c.217-.441.126-.662-.273-.662zm2.744 3.965v-4.095h-.715v-.234h.715v-1.677l2.418-.598v2.275h1.69v.234h-1.69v4.38c0 .408.04.707.117.898.087.19.26.286.52.286s.485-.13.676-.39c.2-.26.33-.616.39-1.066l.221.026c-.07.598-.26 1.075-.572 1.43-.312.346-.828.52-1.547.52-.72 0-1.27-.143-1.65-.43-.382-.285-.573-.805-.573-1.56zm6.377-5.226c-.46 0-.788-.117-.988-.351-.19-.234-.286-.524-.286-.871s.104-.633.312-.858c.217-.226.542-.338.975-.338.434 0 .763.104.988.312.226.2.338.49.338.87 0 .373-.108.672-.325.898-.216.225-.554.338-1.014.338zm-1.963.897h3.185v5.954h.728v.234h-3.86v-.234h.714v-5.72h-.767v-.234zm7.818.104c-.381 0-.654.208-.819.624-.164.416-.247 1.105-.247 2.067v.676c0 .858.096 1.473.286 1.846.19.372.542.559 1.053.559.512 0 .919-.174 1.222-.52a2.5 2.5 0 00.585-1.183l.234.026c-.164.745-.468 1.282-.91 1.612-.45.338-1.07.507-1.859.507-1.005 0-1.776-.269-2.314-.806-.537-.546-.806-1.34-.806-2.38 0-1.048.304-1.854.91-2.417.616-.564 1.47-.845 2.561-.845.772 0 1.36.151 1.768.455.408.294.611.667.611 1.118 0 .45-.1.78-.299.988-.19.208-.46.312-.806.312-.338 0-.61-.091-.819-.273-.208-.182-.312-.45-.312-.806 0-.156.022-.312.065-.468h.43c.06-.174.09-.33.09-.468 0-.416-.208-.624-.624-.624zm2.465-3.666h3.185v9.516h.729v.234h-3.862v-.234h.716v-9.282h-.768v-.234zm7.585 9.88c-1.118 0-1.959-.286-2.522-.858-.555-.58-.832-1.383-.832-2.405 0-1.032.312-1.82.936-2.366.632-.546 1.434-.82 2.405-.82 1.967 0 2.912.989 2.834 2.965h-3.666v.507c0 .85.108 1.49.325 1.924.216.433.593.65 1.13.65 1.006 0 1.665-.537 1.977-1.612l.234.039c-.165.624-.464 1.11-.897 1.456-.425.346-1.066.52-1.924.52zm-.832-3.744h1.339v-.637c0-.702-.044-1.179-.13-1.43-.078-.26-.243-.39-.494-.39-.243 0-.425.139-.546.416-.113.268-.17.736-.17 1.404v.637z" fill="#fff"/><path fill-rule="evenodd" clip-rule="evenodd" d="M100.884 26.59a.747.747 0 00-.019 1.079.75.75 0 001.079-.02l3.251-3.25.53-.53-.53-.53-3.25-3.25a.75.75 0 00-1.061 1.06l1.97 1.97H92.475a.75.75 0 100 1.5h10.379l-1.97 1.97z" fill="#fff"/></svg>