<svg width="136" height="36" fill="none" xmlns="http://www.w3.org/2000/svg"><path stroke="#fff" stroke-width="2" d="M1 1h134v34H1z"/><path d="M22.116 11.5c1.422 0 2.643.285 3.663.855a5.781 5.781 0 012.358 2.367c.546 1.014.82 2.19.82 3.528 0 1.008-.166 1.926-.496 2.754a6.123 6.123 0 01-1.395 2.133 6.197 6.197 0 01-2.16 1.377c-.84.324-1.77.486-2.79.486h-5.76v-.225h1.62v-13.05h-1.62V11.5h5.76zm-1.35 13.275h1.35c.69 0 1.272-.171 1.746-.513.474-.342.852-.813 1.134-1.413.288-.606.495-1.302.621-2.088a15.87 15.87 0 00.19-2.511c0-.888-.073-1.725-.217-2.511-.144-.786-.366-1.479-.666-2.079-.294-.606-.675-1.08-1.143-1.422-.462-.342-1.017-.513-1.665-.513h-1.35v13.05zm11.955-10.377a1.51 1.51 0 01-1.53-1.539c0-.432.147-.795.441-1.089a1.48 1.48 0 011.089-.441c.432 0 .795.147 1.089.441.294.294.441.657.441 1.089a1.51 1.51 0 01-1.53 1.539zm1.251 2.322v8.055h1.197V25h-4.914v-.225h1.197v-7.83h-1.197v-.225h3.717zm2.318 8.46v-2.826h.225c.162.534.4.993.711 1.377a3.29 3.29 0 001.107.891c.426.21.897.315 1.413.315.366 0 .693-.048.981-.144.288-.102.513-.249.675-.441.168-.198.252-.438.252-.72a.9.9 0 00-.378-.765c-.246-.192-.567-.354-.963-.486-.39-.138-.804-.279-1.242-.423a7.494 7.494 0 01-1.25-.54 2.898 2.898 0 01-.973-.873c-.246-.366-.369-.837-.369-1.413 0-.474.114-.906.342-1.296a2.47 2.47 0 01.963-.927c.414-.234.903-.351 1.467-.351.42 0 .798.069 1.134.207.342.132.642.309.9.531l.99-.756h.198v2.52h-.225a4.355 4.355 0 00-.639-1.107 3.003 3.003 0 00-.98-.837c-.385-.216-.838-.324-1.36-.324-.306 0-.576.048-.81.144a1.321 1.321 0 00-.54.396.907.907 0 00-.198.576c0 .312.13.564.387.756.258.186.588.351.99.495l1.287.432c.456.15.885.336 1.287.558.408.222.741.51 1 .864.257.354.386.807.386 1.359 0 .624-.156 1.146-.468 1.566a2.847 2.847 0 01-1.197.936 4.025 4.025 0 01-1.557.306c-.462 0-.89-.075-1.287-.225-.39-.15-.74-.36-1.053-.63l-1.017.855h-.189zm12.45 0c-.816 0-1.554-.156-2.214-.468a3.64 3.64 0 01-1.575-1.422c-.39-.642-.585-1.452-.585-2.43 0-.858.17-1.611.513-2.259a3.629 3.629 0 011.494-1.512c.66-.36 1.458-.54 2.394-.54.702 0 1.317.108 1.845.324.528.216.939.507 1.233.873.294.366.44.771.44 1.215 0 .432-.14.774-.422 1.026a1.45 1.45 0 01-1 .378 1.75 1.75 0 01-.683-.144 1.406 1.406 0 01-.567-.459c-.15-.21-.225-.471-.225-.783 0-.426.147-.759.44-.999.3-.24.646-.36 1.036-.36.366 0 .69.117.972.351.288.234.432.564.432.99h-.207c0-.324-.084-.618-.252-.882a2.3 2.3 0 00-.666-.675 3.255 3.255 0 00-.9-.423 3.028 3.028 0 00-.927-.153c-.438 0-.79.129-1.053.387-.258.252-.456.582-.594.99a6.371 6.371 0 00-.27 1.314c-.042.468-.063.915-.063 1.341 0 .516.03 1.011.09 1.485.06.468.162.888.306 1.26.15.366.357.657.62.873.265.21.6.315 1.009.315.474 0 .888-.096 1.242-.288.36-.198.663-.471.909-.819s.444-.747.594-1.197h.234c-.234.798-.636 1.446-1.206 1.944s-1.368.747-2.394.747zm9.475 0c-.906 0-1.69-.198-2.35-.594a4.163 4.163 0 01-1.52-1.575 4.446 4.446 0 01-.531-2.151c0-.78.177-1.497.53-2.151a4.163 4.163 0 011.522-1.575c.66-.396 1.443-.594 2.349-.594.906 0 1.686.198 2.34.594a4.096 4.096 0 011.512 1.575c.354.654.53 1.371.53 2.151 0 .78-.176 1.497-.53 2.151a4.096 4.096 0 01-1.512 1.575c-.654.396-1.434.594-2.34.594zm0-.225c.33 0 .603-.111.819-.333.222-.222.396-.525.522-.909.132-.384.225-.822.279-1.314a14.11 14.11 0 00.08-1.539c0-.54-.026-1.053-.08-1.539a6.096 6.096 0 00-.28-1.314c-.125-.384-.3-.687-.521-.909a1.094 1.094 0 00-.82-.333c-.335 0-.614.111-.836.333-.216.222-.39.525-.522.909a6.502 6.502 0 00-.27 1.314 13.95 13.95 0 00-.081 1.539c0 .534.027 1.047.08 1.539.055.492.145.93.27 1.314.133.384.307.687.523.909.222.222.5.333.837.333zM73.45 16.72v.225h-1.359l-3.339 8.235h-.855l-3.384-8.235H63.38v-.225h5.229v.225h-1.323l2.142 5.904 2.394-5.904h-1.665v-.225h3.294zm5.216 8.46c-.84 0-1.593-.165-2.26-.495a3.802 3.802 0 01-1.565-1.467c-.378-.642-.567-1.428-.567-2.358 0-.93.183-1.716.549-2.358a3.655 3.655 0 011.53-1.458c.654-.336 1.4-.504 2.24-.504.889 0 1.62.18 2.197.54a3.34 3.34 0 011.278 1.404 4.14 4.14 0 01.423 1.845H75.48v-.225h4.338c0-.378-.012-.762-.036-1.152a5.832 5.832 0 00-.162-1.08c-.078-.336-.198-.603-.36-.801a.804.804 0 00-.666-.306.994.994 0 00-.756.315c-.198.21-.354.501-.468.873a6.425 6.425 0 00-.243 1.251 15.876 15.876 0 00.008 3.114c.06.504.166.948.316 1.332.15.384.357.684.62.9.265.216.607.324 1.027.324.804 0 1.485-.225 2.043-.675.558-.45.948-1.02 1.17-1.71h.234a3.894 3.894 0 01-1.305 1.926c-.63.51-1.488.765-2.574.765zm8.49-4.068c0-.612.046-1.191.136-1.737a5.3 5.3 0 01.44-1.458c.205-.426.475-.759.81-.999.337-.246.748-.369 1.234-.369.408 0 .756.09 1.044.27a1.889 1.889 0 01.882 1.602c0 .414-.138.774-.414 1.08-.276.306-.636.459-1.08.459-.444 0-.807-.135-1.09-.405a1.35 1.35 0 01-.413-.99c0-.438.14-.795.423-1.071.282-.276.639-.414 1.07-.414.283 0 .535.063.757.189a1.4 1.4 0 01.53.495c.133.204.199.423.199.657h-.216a1.61 1.61 0 00-.207-.801 1.613 1.613 0 00-.594-.612 1.74 1.74 0 00-.918-.234c-.42 0-.786.114-1.098.342-.306.222-.561.534-.765.936a5.52 5.52 0 00-.45 1.395 9.2 9.2 0 00-.144 1.665h-.135zm.136-4.392v8.055h1.368V25h-5.076v-.225h1.206v-7.83h-1.206v-.225h3.708z" fill="#fff"/><path fill-rule="evenodd" clip-rule="evenodd" d="M119.238 24.08a1.124 1.124 0 00-.028 1.619 1.126 1.126 0 001.618-.029l4.877-4.875.795-.795-.795-.795-4.875-4.875a1.124 1.124 0 00-1.592 1.59l2.956 2.955h-15.569A1.123 1.123 0 00105.5 20a1.125 1.125 0 001.125 1.125h15.569l-2.956 2.955z" fill="#fff"/></svg>