<svg width="136" height="36" fill="none" xmlns="http://www.w3.org/2000/svg"><path stroke="#fff" stroke-width="2" d="M1 1h134v34H1z"/><path d="M16.148 11.5c1.422 0 2.643.285 3.663.855a5.781 5.781 0 012.358 2.367c.546 1.014.82 2.19.82 3.528 0 1.008-.166 1.926-.495 2.754a6.123 6.123 0 01-1.395 2.133 6.197 6.197 0 01-2.16 1.377c-.84.324-1.77.486-2.79.486h-5.76v-.225h1.62v-13.05h-1.62V11.5h5.76zm-1.35 13.275h1.35c.69 0 1.273-.171 1.747-.513.474-.342.852-.813 1.134-1.413.288-.606.494-1.302.62-2.088a15.87 15.87 0 00.19-2.511c0-.888-.072-1.725-.216-2.511-.145-.786-.367-1.479-.667-2.079-.293-.606-.674-1.08-1.142-1.422-.462-.342-1.017-.513-1.666-.513h-1.35v13.05zm14.061.405c-.84 0-1.593-.165-2.259-.495a3.802 3.802 0 01-1.566-1.467c-.378-.642-.567-1.428-.567-2.358 0-.93.183-1.716.55-2.358a3.655 3.655 0 011.53-1.458c.653-.336 1.4-.504 2.24-.504.888 0 1.62.18 2.196.54a3.34 3.34 0 011.278 1.404 4.14 4.14 0 01.423 1.845h-7.01v-.225h4.337c0-.378-.012-.762-.036-1.152a5.832 5.832 0 00-.162-1.08c-.078-.336-.198-.603-.36-.801a.804.804 0 00-.666-.306.994.994 0 00-.756.315c-.198.21-.354.501-.468.873a6.425 6.425 0 00-.243 1.251c-.048.468-.072.96-.072 1.476 0 .582.027 1.128.081 1.638.06.504.165.948.315 1.332.15.384.357.684.621.9.264.216.606.324 1.026.324.804 0 1.485-.225 2.043-.675.558-.45.948-1.02 1.17-1.71h.234a3.894 3.894 0 01-1.305 1.926c-.63.51-1.488.765-2.574.765zm-.927-10.08l-.117-.153 1.53-2.196c.174-.288.387-.465.64-.531.251-.072.491-.069.72.009a.978.978 0 01.521.369.987.987 0 01.153.657 1.219 1.219 0 01-.279.666c-.162.198-.387.33-.675.396l-2.493.783zM38.43 25.18c-.816 0-1.554-.156-2.214-.468a3.64 3.64 0 01-1.575-1.422c-.39-.642-.585-1.452-.585-2.43 0-.858.171-1.611.513-2.259a3.629 3.629 0 011.494-1.512c.66-.36 1.458-.54 2.394-.54.702 0 1.317.108 1.845.324.528.216.94.507 1.233.873.294.366.441.771.441 1.215 0 .432-.14.774-.423 1.026a1.45 1.45 0 01-.999.378 1.75 1.75 0 01-.684-.144 1.406 1.406 0 01-.567-.459c-.15-.21-.225-.471-.225-.783 0-.426.147-.759.441-.999.3-.24.645-.36 1.035-.36.366 0 .69.117.972.351.288.234.432.564.432.99h-.207c0-.324-.084-.618-.252-.882a2.3 2.3 0 00-.666-.675 3.255 3.255 0 00-.9-.423 3.028 3.028 0 00-.927-.153c-.438 0-.789.129-1.053.387-.258.252-.456.582-.594.99a6.371 6.371 0 00-.27 1.314c-.042.468-.063.915-.063 1.341 0 .516.03 1.011.09 1.485.06.468.162.888.306 1.26.15.366.357.657.621.873.264.21.6.315 1.008.315.474 0 .888-.096 1.242-.288.36-.198.663-.471.91-.819.245-.348.443-.747.593-1.197h.234c-.234.798-.636 1.446-1.206 1.944s-1.368.747-2.394.747zm9.475 0c-.906 0-1.689-.198-2.349-.594a4.163 4.163 0 01-1.52-1.575 4.446 4.446 0 01-.532-2.151c0-.78.177-1.497.531-2.151a4.163 4.163 0 011.521-1.575c.66-.396 1.443-.594 2.35-.594.905 0 1.685.198 2.34.594a4.096 4.096 0 011.511 1.575c.354.654.531 1.371.531 2.151 0 .78-.177 1.497-.53 2.151a4.096 4.096 0 01-1.513 1.575c-.654.396-1.434.594-2.34.594zm0-.225c.33 0 .603-.111.82-.333.221-.222.395-.525.521-.909.132-.384.225-.822.28-1.314a14.11 14.11 0 00.08-1.539c0-.54-.027-1.053-.08-1.539a6.096 6.096 0 00-.28-1.314c-.126-.384-.3-.687-.522-.909a1.094 1.094 0 00-.819-.333c-.336 0-.615.111-.837.333-.216.222-.39.525-.522.909a6.502 6.502 0 00-.27 1.314 13.95 13.95 0 00-.08 1.539c0 .534.026 1.047.08 1.539.054.492.144.93.27 1.314.132.384.306.687.522.909.222.222.501.333.837.333zm9.242.225c-.672 0-1.194-.117-1.566-.351a1.884 1.884 0 01-.765-.972 4.178 4.178 0 01-.216-1.395v-5.517h-1.206v-.225h3.718v5.607c0 .504.02.918.063 1.242.042.318.126.555.252.711.126.156.312.234.557.234.39 0 .718-.117.981-.351.27-.24.486-.549.648-.927.163-.378.28-.786.352-1.224a7.33 7.33 0 00.116-1.269l.171-.036c0 .438-.038.915-.117 1.431a5.11 5.11 0 01-.45 1.458 2.943 2.943 0 01-.936 1.143c-.407.294-.942.441-1.602.441zm2.934-.18v-8.055h-1.17v-.225h3.7v8.055h1.197V25H60.08zm14.293-8.28v.225h-1.36l-3.338 8.235h-.855l-3.384-8.235h-1.134v-.225h5.229v.225h-1.323l2.142 5.904 2.394-5.904H71.08v-.225h3.294zm4.127 4.392c0-.612.045-1.191.135-1.737a5.3 5.3 0 01.44-1.458c.205-.426.475-.759.81-.999.337-.246.748-.369 1.234-.369.408 0 .756.09 1.044.27a1.889 1.889 0 01.882 1.602c0 .414-.138.774-.414 1.08-.276.306-.636.459-1.08.459-.444 0-.807-.135-1.09-.405a1.35 1.35 0 01-.413-.99c0-.438.14-.795.423-1.071.282-.276.639-.414 1.07-.414.283 0 .535.063.757.189a1.4 1.4 0 01.53.495c.133.204.199.423.199.657h-.216a1.61 1.61 0 00-.207-.801 1.613 1.613 0 00-.594-.612 1.74 1.74 0 00-.918-.234c-.42 0-.786.114-1.098.342-.306.222-.561.534-.765.936a5.52 5.52 0 00-.45 1.395 9.2 9.2 0 00-.144 1.665H78.5zm.135-4.392v8.055h1.368V25h-5.076v-.225h1.206v-7.83h-1.206v-.225h3.708zm7.69-2.322a1.51 1.51 0 01-1.53-1.539c0-.432.146-.795.44-1.089a1.48 1.48 0 011.09-.441c.431 0 .795.147 1.089.441.293.294.44.657.44 1.089a1.51 1.51 0 01-1.53 1.539zm1.25 2.322v8.055h1.198V25h-4.915v-.225h1.198v-7.83h-1.198v-.225h3.718zm5.55 4.392c0-.612.045-1.191.135-1.737a5.3 5.3 0 01.44-1.458c.205-.426.475-.759.81-.999.337-.246.748-.369 1.234-.369.408 0 .756.09 1.044.27a1.889 1.889 0 01.882 1.602c0 .414-.138.774-.414 1.08-.276.306-.636.459-1.08.459-.444 0-.807-.135-1.09-.405a1.35 1.35 0 01-.413-.99c0-.438.14-.795.423-1.071.282-.276.639-.414 1.07-.414.283 0 .535.063.757.189a1.4 1.4 0 01.53.495c.133.204.199.423.199.657h-.216a1.61 1.61 0 00-.207-.801 1.613 1.613 0 00-.594-.612 1.74 1.74 0 00-.918-.234c-.42 0-.786.114-1.098.342-.306.222-.561.534-.765.936a5.52 5.52 0 00-.45 1.395 9.2 9.2 0 00-.144 1.665h-.135zm.135-4.392v8.055h1.368V25h-5.076v-.225h1.206v-7.83h-1.206v-.225h3.708z" fill="#fff"/><path fill-rule="evenodd" clip-rule="evenodd" d="M119.238 24.08a1.124 1.124 0 00-.028 1.619 1.126 1.126 0 001.618-.029l4.877-4.875.795-.795-.795-.795-4.875-4.875a1.124 1.124 0 00-1.592 1.59l2.956 2.955h-15.569A1.123 1.123 0 00105.5 20a1.125 1.125 0 001.125 1.125h15.569l-2.956 2.955z" fill="#fff"/></svg>