<svg width="335" height="539" fill="none" xmlns="http://www.w3.org/2000/svg"><ellipse cx="167.5" cy="160.36" rx="167.5" ry="160.36" fill="#4E3417"/><path fill="#4E3417" d="M0 57.442h335V539H0z"/><path d="M326 160.838c0 83.413-70.656 151.18-158 151.18S10 244.251 10 160.838C10 77.426 80.656 9.659 168 9.659s158 67.766 158 151.179z" stroke="#DDD690" stroke-width="4"/><path fill="#DDD690" d="M8 67.016h4v445.178H8z"/><path fill="#DDD690" d="M8 70.845v-3.829h34v3.83zm285 .001v-3.83h31v3.83zM10 512.194v-2.872h22v2.872z"/><path fill="#DDD690" d="M28 509.321h4v18.19h-4zm274 2.873v-2.872h22v2.872z"/><path fill="#DDD690" d="M30 527.512v-3.829h276v3.829z"/><path fill="#DDD690" d="M302 509.321h4v18.19h-4zm18-442.305h4v445.178h-4z"/><path fill="#4E3417" d="M12 70.846h308v262.32H12zm312-1.915h11v262.32h-11z"/></svg>