<svg width="335" height="633" fill="none" xmlns="http://www.w3.org/2000/svg"><ellipse cx="167.5" cy="188.326" rx="167.5" ry="188.326" fill="#4E3417"/><path fill="#4E3417" d="M0 67.46h335V633H0z"/><path d="M326 188.888c0 98.475-70.953 177.894-158 177.894S10 287.363 10 188.888C10 90.413 80.953 10.995 168 10.995s158 79.418 158 177.893z" stroke="#DDD690" stroke-width="4"/><path fill="#DDD690" d="M8 78.703h4v522.815H8z"/><path fill="#DDD690" d="M8 83.2v-4.496h34V83.2zm285 0v-4.496h31V83.2zM10 601.519v-3.373h22v3.373z"/><path fill="#DDD690" d="M28 598.146h4v21.362h-4zm274 3.373v-3.373h22v3.373z"/><path fill="#DDD690" d="M30 619.508v-4.497h276v4.497z"/><path fill="#DDD690" d="M302 598.146h4v21.362h-4zm18-519.443h4v522.815h-4z"/><path fill="#4E3417" d="M12 83.201h308v308.068H12zm312-2.249h11V389.02h-11z"/></svg>